<?xml version="1.0" encoding="UTF-8"?>
<svg width="48" height="48" viewBox="0 0 48 48" fill="none" xmlns="http://www.w3.org/2000/svg">
    <style>
        path { fill: hsl(45, 100%, 50%); }
    </style>
    <!-- Outer circle -->
    <path fill-rule="evenodd" clip-rule="evenodd" d="M24 4C12.954 4 4 12.954 4 24C4 35.046 12.954 44 24 44C35.046 44 44 35.046 44 24C44 12.954 35.046 4 24 4ZM24 8C15.163 8 8 15.163 8 24C8 32.837 15.163 40 24 40C32.837 40 40 32.837 40 24C40 15.163 32.837 8 24 8Z"/>
    <!-- Growth chart -->
    <path d="M16 32L24 16L32 32M16 32H32"/>
    <!-- Success stars -->
    <path d="M24 12L25 14L27 15L25 16L24 18L23 16L21 15L23 14L24 12Z"/>
    <path d="M32 20L33 22L35 23L33 24L32 26L31 24L29 23L31 22L32 20Z"/>
    <path d="M16 20L17 22L19 23L17 24L16 26L15 24L13 23L15 22L16 20Z"/>
</svg>
