<?xml version="1.0" encoding="UTF-8"?>
<svg width="48" height="48" viewBox="0 0 48 48" fill="none" xmlns="http://www.w3.org/2000/svg">
    <style>
        path { fill: hsl(300, 100%, 50%); }
    </style>
    <!-- Outer circle -->
    <path fill-rule="evenodd" clip-rule="evenodd" d="M24 4C12.954 4 4 12.954 4 24C4 35.046 12.954 44 24 44C35.046 44 44 35.046 44 24C44 12.954 35.046 4 24 4ZM24 8C15.163 8 8 15.163 8 24C8 32.837 15.163 40 24 40C32.837 40 40 32.837 40 24C40 15.163 32.837 8 24 8Z"/>
    <!-- Magnifying glass -->
    <path d="M21 16C17.6863 16 15 18.6863 15 22C15 25.3137 17.6863 28 21 28C22.5367 28 23.9385 27.4521 25.0312 26.5312L31.7071 33.2071C32.0976 33.5976 32.7308 33.5976 33.1213 33.2071C33.5118 32.8166 33.5118 32.1834 33.1213 31.7929L26.4454 25.1171C27.4226 23.9991 28 22.5566 28 21C28 17.6863 25.3137 15 22 15C21.6716 15 21.3333 15.0236 21 15.0691V16Z"/>
    <!-- Sparkles -->
    <path d="M32 16L33 18L35 19L33 20L32 22L31 20L29 19L31 18L32 16Z"/>
    <path d="M16 28L17 30L19 31L17 32L16 34L15 32L13 31L15 30L16 28Z"/>
</svg>
