<?xml version="1.0" encoding="UTF-8"?>
<svg width="48" height="48" viewBox="0 0 48 48" fill="none" xmlns="http://www.w3.org/2000/svg">
    <style>
        path { fill: hsl(165, 12%, 76%); }
    </style>
    <!-- Outer circle -->
    <path fill-rule="evenodd" clip-rule="evenodd" d="M24 4C12.954 4 4 12.954 4 24C4 35.046 12.954 44 24 44C35.046 44 44 35.046 44 24C44 12.954 35.046 4 24 4ZM24 8C15.163 8 8 15.163 8 24C8 32.837 15.163 40 24 40C32.837 40 40 32.837 40 24C40 15.163 32.837 8 24 8Z"/>
    <!-- Laptop -->
    <path d="M16 18C16 17.4477 16.4477 17 17 17H31C31.5523 17 32 17.4477 32 18V28H16V18Z"/>
    <!-- Laptop stand -->
    <path d="M14 28H34L32 32H16L14 28Z"/>
    <!-- WiFi signals -->
    <path d="M20 22C20 22 22 24 24 24C26 24 28 22 28 22"/>
    <path d="M18 20C18 20 21 23 24 23C27 23 30 20 30 20"/>
</svg>
