<?xml version="1.0" encoding="UTF-8"?>
<svg width="48" height="48" viewBox="0 0 48 48" fill="none" xmlns="http://www.w3.org/2000/svg">
    <style>
        path { fill: hsl(140, 45%, 60%); }
    </style>
    <!-- Leaf and circular arrows pattern -->
    <path fill-rule="evenodd" clip-rule="evenodd" d="M24 4C12.954 4 4 12.954 4 24C4 35.046 12.954 44 24 44C35.046 44 44 35.046 44 24C44 12.954 35.046 4 24 4ZM24 8C15.163 8 8 15.163 8 24C8 32.837 15.163 40 24 40C32.837 40 40 32.837 40 24C40 15.163 32.837 8 24 8Z"/>
    <!-- Leaf -->
    <path d="M24 16C24 16 32 16 32 24C32 32 24 32 24 32V16Z"/>
    <path d="M24 16C24 16 16 16 16 24C16 32 24 32 24 32V16Z"/>
    <!-- Stem -->
    <path d="M24 32V40"/>
    <!-- Circular arrows -->
    <path d="M14 20C14 20 16 16 20 16M34 28C34 28 32 32 28 32"/>
</svg>
