<?xml version="1.0" encoding="UTF-8"?>
<svg width="48" height="48" viewBox="0 0 48 48" fill="none" xmlns="http://www.w3.org/2000/svg">
    <style>
        path { fill: hsl(217, 84%, 44%); }
    </style>
    <!-- Circuit board pattern -->
    <path fill-rule="evenodd" clip-rule="evenodd" d="M24 4C12.954 4 4 12.954 4 24C4 35.046 12.954 44 24 44C35.046 44 44 35.046 44 24C44 12.954 35.046 4 24 4ZM24 8C15.163 8 8 15.163 8 24C8 32.837 15.163 40 24 40C32.837 40 40 32.837 40 24C40 15.163 32.837 8 24 8Z"/>
    <path d="M24 16V32M16 24H32M18 18L30 30M30 18L18 30"/>
    <!-- Connection nodes -->
    <circle cx="24" cy="16" r="2"/>
    <circle cx="24" cy="32" r="2"/>
    <circle cx="16" cy="24" r="2"/>
    <circle cx="32" cy="24" r="2"/>
    <circle cx="18" cy="18" r="2"/>
    <circle cx="30" cy="30" r="2"/>
    <circle cx="30" cy="18" r="2"/>
    <circle cx="18" cy="30" r="2"/>
</svg>
