<?xml version="1.0" encoding="UTF-8"?>
<svg width="48" height="48" viewBox="0 0 48 48" fill="none" xmlns="http://www.w3.org/2000/svg">
    <style>
        path { fill: hsl(270, 40%, 65%); }
    </style>
    <!-- Outer circle -->
    <path fill-rule="evenodd" clip-rule="evenodd" d="M24 4C12.954 4 4 12.954 4 24C4 35.046 12.954 44 24 44C35.046 44 44 35.046 44 24C44 12.954 35.046 4 24 4ZM24 8C15.163 8 8 15.163 8 24C8 32.837 15.163 40 24 40C32.837 40 40 32.837 40 24C40 15.163 32.837 8 24 8Z"/>
    <!-- Lotus flower pattern -->
    <path d="M24 16C24 16 20 20 20 24C20 28 24 32 24 32C24 32 28 28 28 24C28 20 24 16 24 16Z"/>
    <path d="M16 24C16 24 20 20 24 20C28 20 32 24 32 24C32 24 28 28 24 28C20 28 16 24 16 24Z"/>
    <!-- Center circle -->
    <circle cx="24" cy="24" r="3"/>
</svg>
